<svg width="21" height="20" viewBox="0 0 21 20" fill="none" xmlns="http://www.w3.org/2000/svg">
<g clip-path="url(#clip0_231_8128)">
<path d="M17.1667 4.99996H15.35C15.4417 4.74163 15.5 4.45829 15.5 4.16663C15.5 2.78329 14.3834 1.66663 13 1.66663C12.125 1.66663 11.3667 2.11663 10.9167 2.79163L10.5 3.34996L10.0834 2.78329C9.63335 2.11663 8.87502 1.66663 8.00002 1.66663C6.61669 1.66663 5.50002 2.78329 5.50002 4.16663C5.50002 4.45829 5.55835 4.74163 5.65002 4.99996H3.83335C2.90835 4.99996 2.17502 5.74163 2.17502 6.66663L2.16669 15.8333C2.16669 16.7583 2.90835 17.5 3.83335 17.5H17.1667C18.0917 17.5 18.8334 16.7583 18.8334 15.8333L18.8334 6.66663C18.8334 5.74163 18.0917 4.99996 17.1667 4.99996ZM13 3.33329C13.4584 3.33329 13.8334 3.70829 13.8334 4.16663C13.8334 4.62496 13.4584 4.99996 13 4.99996C12.5417 4.99996 12.1667 4.62496 12.1667 4.16663C12.1667 3.70829 12.5417 3.33329 13 3.33329ZM8.00002 3.33329C8.45835 3.33329 8.83335 3.70829 8.83335 4.16663C8.83335 4.62496 8.45835 4.99996 8.00002 4.99996C7.54169 4.99996 7.16669 4.62496 7.16669 4.16663C7.16669 3.70829 7.54169 3.33329 8.00002 3.33329ZM17.1667 15.8333L3.83335 15.8333L3.83335 14.1666L17.1667 14.1666V15.8333ZM17.1667 11.6666L3.83335 11.6666L3.83335 6.66663L8.06669 6.66663L6.33335 9.02496L7.68335 9.99996L9.66669 7.29996L10.5 6.16663L11.3334 7.29996L13.3167 9.99996L14.6667 9.02496L12.9334 6.66663L17.1667 6.66663V11.6666Z" fill="#121212"/>
</g>
<defs>
<clipPath id="clip0_231_8128">
<rect width="20" height="20" fill="white" transform="translate(0.5)"/>
</clipPath>
</defs>
</svg>
