<svg width="20" height="20" viewBox="0 0 20 20" fill="none" xmlns="http://www.w3.org/2000/svg">
<g clip-path="url(#clip0_231_8104)">
<path d="M9.16666 11.6666H7.49999C7.49999 7.52496 10.8583 4.16663 15 4.16663V5.83329C11.775 5.83329 9.16666 8.44163 9.16666 11.6666ZM15 9.16663V7.49996C12.7 7.49996 10.8333 9.36663 10.8333 11.6666H12.5C12.5 10.2833 13.6167 9.16663 15 9.16663ZM5.83332 3.33329C5.83332 2.40829 5.09166 1.66663 4.16666 1.66663C3.24166 1.66663 2.49999 2.40829 2.49999 3.33329C2.49999 4.25829 3.24166 4.99996 4.16666 4.99996C5.09166 4.99996 5.83332 4.25829 5.83332 3.33329ZM9.54166 3.74996H7.87499C7.67499 4.93329 6.65832 5.83329 5.41666 5.83329H2.91666C2.22499 5.83329 1.66666 6.39163 1.66666 7.08329V9.16663H6.66666V7.28329C8.21666 6.79163 9.37499 5.42496 9.54166 3.74996ZM15.8333 14.1666C16.7583 14.1666 17.5 13.425 17.5 12.5C17.5 11.575 16.7583 10.8333 15.8333 10.8333C14.9083 10.8333 14.1667 11.575 14.1667 12.5C14.1667 13.425 14.9083 14.1666 15.8333 14.1666ZM17.0833 15H14.5833C13.3417 15 12.325 14.1 12.125 12.9166H10.4583C10.625 14.5916 11.7833 15.9583 13.3333 16.45V18.3333H18.3333V16.25C18.3333 15.5583 17.775 15 17.0833 15Z" fill="#EEEEEE"/>
</g>
<defs>
<clipPath id="clip0_231_8104">
<rect width="20" height="20" fill="white"/>
</clipPath>
</defs>
</svg>
