<svg width="21" height="20" viewBox="0 0 21 20" fill="none" xmlns="http://www.w3.org/2000/svg">
<g clip-path="url(#clip0_231_8137)">
<path d="M5.50002 15.8333C5.50002 16.75 6.25002 17.5 7.16669 17.5H13.8334C14.75 17.5 15.5 16.75 15.5 15.8333L15.5 5.83333L5.50002 5.83333L5.50002 15.8333ZM7.55002 9.9L8.72502 8.725L10.5 10.4917L12.2667 8.725L13.4417 9.9L11.675 11.6667L13.4417 13.4333L12.2667 14.6083L10.5 12.8417L8.73335 14.6083L7.55835 13.4333L9.32502 11.6667L7.55002 9.9ZM13.4167 3.33333L12.5834 2.5L8.41669 2.5L7.58335 3.33333L4.66669 3.33333V5L16.3334 5V3.33333L13.4167 3.33333Z" fill="#121212"/>
</g>
<defs>
<clipPath id="clip0_231_8137">
<rect width="20" height="20" fill="white" transform="translate(0.5)"/>
</clipPath>
</defs>
</svg>
