<svg width="21" height="20" viewBox="0 0 21 20" fill="none" xmlns="http://www.w3.org/2000/svg">
<g clip-path="url(#clip0_231_8131)">
<path d="M16.2667 5.00829C16.1 4.51663 15.6333 4.16663 15.0833 4.16663L5.91667 4.16663C5.36667 4.16663 4.90833 4.51663 4.73333 5.00829L3 9.99996L3 16.6666C3 17.125 3.375 17.5 3.83333 17.5H4.66667C5.125 17.5 5.5 17.125 5.5 16.6666V15.8333L15.5 15.8333V16.6666C15.5 17.125 15.875 17.5 16.3333 17.5H17.1667C17.625 17.5 18 17.125 18 16.6666V9.99996L16.2667 5.00829ZM5.91667 13.3333C5.225 13.3333 4.66667 12.775 4.66667 12.0833C4.66667 11.3916 5.225 10.8333 5.91667 10.8333C6.60833 10.8333 7.16667 11.3916 7.16667 12.0833C7.16667 12.775 6.60833 13.3333 5.91667 13.3333ZM15.0833 13.3333C14.3917 13.3333 13.8333 12.775 13.8333 12.0833C13.8333 11.3916 14.3917 10.8333 15.0833 10.8333C15.775 10.8333 16.3333 11.3916 16.3333 12.0833C16.3333 12.775 15.775 13.3333 15.0833 13.3333ZM4.66667 9.16663L5.91667 5.41663L15.0833 5.41663L16.3333 9.16663L4.66667 9.16663Z" fill="#333333"/>
</g>
<defs>
<clipPath id="clip0_231_8131">
<rect width="20" height="20" fill="white" transform="translate(0.5)"/>
</clipPath>
</defs>
</svg>
