<svg width="21" height="20" viewBox="0 0 21 20" fill="none" xmlns="http://www.w3.org/2000/svg">
<g clip-path="url(#clip0_231_8144)">
<path d="M10.5 1.66663C6.35833 1.66663 3 5.02496 3 9.16663C3 12.6416 5.36667 15.5583 8.575 16.4083L10.5 18.3333L12.425 16.4083C15.6333 15.5583 18 12.6416 18 9.16663C18 5.02496 14.6417 1.66663 10.5 1.66663ZM10.5 3.33329C11.8833 3.33329 13 4.44996 13 5.83329C13 7.21663 11.8833 8.33329 10.5 8.33329C9.11667 8.33329 8 7.21663 8 5.83329C8 4.44996 9.11667 3.33329 10.5 3.33329ZM10.5 15.25C8.41667 15.25 6.575 14.1833 5.5 12.5666C5.525 10.9083 8.83333 9.99996 10.5 9.99996C12.1583 9.99996 15.475 10.9083 15.5 12.5666C14.425 14.1833 12.5833 15.25 10.5 15.25Z" fill="#333333"/>
</g>
<defs>
<clipPath id="clip0_231_8144">
<rect width="20" height="20" fill="white" transform="translate(0.5)"/>
</clipPath>
</defs>
</svg>
