<svg width="20" height="20" viewBox="0 0 20 20" fill="none" xmlns="http://www.w3.org/2000/svg">
<g clip-path="url(#clip0_231_8038)">
<path d="M15.8333 2.5H4.16667C3.25 2.5 2.5 3.25 2.5 4.16667V10C2.5 10.9167 3.25 11.6667 4.16667 11.6667H15.8333C16.75 11.6667 17.5 10.9167 17.5 10V4.16667C17.5 3.25 16.75 2.5 15.8333 2.5ZM15.8333 7.5H12.5C12.5 8.85 11.35 10 10 10C8.65 10 7.5 8.85 7.5 7.5H4.16667V4.16667H15.8333V7.5ZM12.5 13.3333H17.5V15.8333C17.5 16.75 16.75 17.5 15.8333 17.5H4.16667C3.25 17.5 2.5 16.75 2.5 15.8333V13.3333H7.5C7.5 14.7167 8.61667 15.8333 10 15.8333C11.3833 15.8333 12.5 14.7167 12.5 13.3333Z" fill="#7C7875"/>
</g>
<defs>
<clipPath id="clip0_231_8038">
<rect width="20" height="20" fill="white"/>
</clipPath>
</defs>
</svg>
