<svg width="20" height="20" viewBox="0 0 20 20" fill="none" xmlns="http://www.w3.org/2000/svg">
<g clip-path="url(#clip0_231_8032)">
<path d="M7.91666 5.41663V7.91663H5.41666V5.41663H7.91666ZM9.16666 4.16663H4.16666V9.16663H9.16666V4.16663ZM7.91666 12.0833V14.5833H5.41666V12.0833H7.91666ZM9.16666 10.8333H4.16666V15.8333H9.16666V10.8333ZM14.5833 5.41663V7.91663H12.0833V5.41663H14.5833ZM15.8333 4.16663H10.8333V9.16663H15.8333V4.16663ZM10.8333 10.8333H12.0833V12.0833H10.8333V10.8333ZM12.0833 12.0833H13.3333V13.3333H12.0833V12.0833ZM13.3333 10.8333H14.5833V12.0833H13.3333V10.8333ZM10.8333 13.3333H12.0833V14.5833H10.8333V13.3333ZM12.0833 14.5833H13.3333V15.8333H12.0833V14.5833ZM13.3333 13.3333H14.5833V14.5833H13.3333V13.3333ZM14.5833 12.0833H15.8333V13.3333H14.5833V12.0833ZM14.5833 14.5833H15.8333V15.8333H14.5833V14.5833ZM18.3333 5.83329H16.6667V3.33329H14.1667V1.66663H18.3333V5.83329ZM18.3333 18.3333V14.1666H16.6667V16.6666H14.1667V18.3333H18.3333ZM1.66666 18.3333H5.83332V16.6666H3.33332V14.1666H1.66666V18.3333ZM1.66666 1.66663V5.83329H3.33332V3.33329H5.83332V1.66663H1.66666Z" fill="#FEFEFE"/>
</g>
<defs>
<clipPath id="clip0_231_8032">
<rect width="20" height="20" fill="white"/>
</clipPath>
</defs>
</svg>
